<svg xmlns="http://www.w3.org/2000/svg" version="1.1" xmlns:xlink="http://www.w3.org/1999/xlink" xmlns:svgjs="http://svgjs.com/svgjs" width="1920" height="350" preserveAspectRatio="none" viewBox="0 0 1920 350"><g mask="url(&quot;#SvgjsMask1034&quot;)" fill="none"><rect width="1920" height="350" x="0" y="0" fill="rgba(255, 255, 255, 1)"></rect><path d="M 0,143 C 76.8,124.8 230.4,48.4 384,52 C 537.6,55.6 614.4,165.6 768,161 C 921.6,156.4 998.4,26.2 1152,29 C 1305.6,31.8 1382.4,180.4 1536,175 C 1689.6,169.6 1843.2,36.6 1920,2L1920 350L0 350z" fill="rgba(235, 166, 9, 0.72)"></path><path d="M 0,203 C 96,222.4 288,301.4 480,300 C 672,298.6 768,200 960,196 C 1152,192 1248,279 1440,280 C 1632,281 1824,216.8 1920,201L1920 350L0 350z" fill="rgba(235, 133, 5, 1)"></path></g><defs><mask id="SvgjsMask1034"><rect width="1920" height="350" fill="#ffffff"></rect></mask></defs></svg>